<svg width="160" height="160" viewBox="0 0 160 160" fill="none" xmlns="http://www.w3.org/2000/svg">
<g id="g6717">
<g id="g6719">
<g id="Clip path group">
<mask id="mask0_2287_6650" style="mask-type:luminance" maskUnits="userSpaceOnUse" x="0" y="0" width="160" height="160">
<g id="clipPath6725">
<path id="path6723" d="M0 1.52588e-05H160V160H0V1.52588e-05Z" fill="white"/>
</g>
</mask>
<g mask="url(#mask0_2287_6650)">
<g id="g6721">
<g id="g6727">
<path id="path6729" d="M92.1041 68.8057V66.0714L92.7562 65.2389C92.5925 64.4764 92.3219 63.7517 91.9544 63.0864C90.8841 61.1467 88.9847 59.8017 86.8291 59.2898L82.3778 58.2326L80.9844 58.5192L75.4797 54.8995H37.5416V42.1442L36.3634 40.9661L34.7081 41.6182L31.9153 44.4892L25.0728 58.3111L24.5781 60.4986V74.1964L25.4112 75.8892L27.12 76.8857H89.2975C91.3062 76.8857 92.935 75.257 92.935 73.2479V69.9264L92.1041 68.8057Z" fill="#FF5E67"/>
</g>
<g id="g6731">
<path id="path6733" d="M25.0543 73.2479L25.0971 61.9301C25.1015 60.7145 25.2384 59.4979 25.5746 58.3295C25.8196 57.4782 26.1512 56.6511 26.5674 55.8611C27.9212 53.2898 29.969 49.3495 31.7946 45.6229C32.8034 43.5642 34.5296 42.0089 36.5846 41.1873L35.9315 40.5342H34.4643C30.9959 40.5342 27.8312 42.5082 26.3053 45.6229C24.4793 49.3495 22.4318 53.2898 21.0778 55.8611C20.2459 57.4407 19.7518 59.1698 19.6112 60.9423L21.0103 62.6339V63.962L19.5649 65.6298V73.2479C19.5649 75.257 21.1937 76.8857 23.2028 76.8857H28.6924C26.6831 76.8857 25.0543 75.257 25.0543 73.2479Z" fill="#FF5E67"/>
</g>
<g id="g6735">
<path id="path6737" d="M37.043 73.1811H35.3721L32.3252 77.6342V80.9936L33.7314 84.5873L35.8018 85.7983L37.043 85.9805C39.2508 84.6998 40.7405 82.3117 40.7405 79.5808C40.7405 76.8498 39.2508 74.4617 37.043 73.1811Z" fill="#454F5B"/>
</g>
<g id="g6739">
<path id="path6741" d="M78.5846 73.1811H77.6249L75.333 75.6811L74.2393 78.9102V81.957L75.1508 84.0405L76.8046 85.5767L78.5846 85.9805C80.7924 84.6998 82.2821 82.3117 82.2821 79.5808C82.2821 76.8498 80.7924 74.4617 78.5846 73.1811Z" fill="#454F5B"/>
</g>
<g id="g6743">
<path id="path6745" d="M33.3459 79.5799C33.3459 76.849 34.8352 74.4609 37.043 73.1802C35.9546 72.549 34.6921 72.1855 33.3455 72.1855C29.2684 72.1855 25.9512 75.5027 25.9512 79.5799C25.9512 83.6574 29.2684 86.9746 33.3455 86.9746C34.6921 86.9746 35.9546 86.6112 37.043 85.9796C34.8352 84.699 33.3459 82.3109 33.3459 79.5799Z" fill="#454F5B"/>
</g>
<g id="g6747">
<path id="path6749" d="M74.8875 79.5799C74.8875 76.849 76.3769 74.4609 78.5847 73.1802C77.4963 72.549 76.2341 72.1855 74.8875 72.1855C70.81 72.1855 67.4932 75.5027 67.4932 79.5799C67.4932 83.6574 70.81 86.9746 74.8875 86.9746C76.2341 86.9746 77.4963 86.6112 78.5847 85.9796C76.3769 84.699 74.8875 82.3109 74.8875 79.5799Z" fill="#454F5B"/>
</g>
<g id="g6751">
<path id="path6753" d="M107.833 86.7689H16.7072L15.1509 87.4289L13.9531 88.6111V99.3877H107.833L109.526 98.5543V88.6111L107.833 86.7689Z" fill="#919EAB"/>
</g>
<g id="g6755">
<path id="path6757" d="M14.6904 90.3089C14.6904 88.3539 16.2751 86.7689 18.2301 86.7689H5.88637C3.93137 86.7689 2.34668 88.3539 2.34668 90.3089V97.7721L5.04699 99.3877H17.3907L14.6904 97.7721V90.3089Z" fill="#919EAB"/>
</g>
<g id="g6759">
<path id="path6761" d="M157.659 84.3693C157.656 83.928 157.619 83.4909 157.549 83.0609C157.145 80.5627 155.524 78.4277 153.304 77.213L146.021 73.2284L142.26 70.0224L137.732 64.3834L120.191 49.4927L117.731 45.2409H117.182V99.3887H155.646V86.6405L157.66 84.6271V84.4209C157.66 84.4034 157.66 84.3865 157.659 84.3693Z" fill="#FFC501"/>
</g>
<g id="g6763">
<path id="path6765" d="M118.149 50.2002C118.149 49.1724 118.461 48.218 118.996 47.4261L117.732 45.2402H112.793C110.053 45.2402 107.833 47.4608 107.833 50.2002V97.7721L110.366 99.3877H120.682L118.149 97.7721V50.2002Z" fill="#FFC501"/>
</g>
<g id="g6767">
<path id="path6769" d="M153.936 84.6264C153.195 85.2268 152.599 85.7158 152.599 85.7158L152.13 86.7689V98.4502H155.646L157.66 97.7724V84.6264H153.936Z" fill="#FFC501"/>
</g>
<g id="g6771">
<path id="path6773" d="M152.841 87.8871C152.841 86.0861 154.301 84.6264 156.102 84.6264H148.393C146.592 84.6264 145.133 86.0861 145.133 87.8871V97.7724L145.776 98.4502H153.485L152.841 97.7724V87.8871Z" fill="#FFC501"/>
</g>
<g id="g6775">
<path id="path6777" d="M14.6301 97.7725H2.34668V104.507C2.34668 106.569 4.03449 108.257 6.09668 108.257H14.6301V97.7725Z" fill="#919EAB"/>
</g>
<g id="g6779">
<path id="path6781" d="M29.0049 97.7725V108.257H153.555C155.822 108.257 157.66 106.419 157.66 104.152V97.7725H29.0049Z" fill="#919EAB"/>
</g>
<g id="g6783">
<path id="path6785" d="M134.551 54.6366C132.907 50.8097 129.802 47.7544 125.94 46.2532L124.864 47.3569V63.3725L126.681 65.6025H135.014L135.932 64.961L137.416 62.6172L137.674 61.91L134.551 54.6366Z" fill="#C3EBF8"/>
</g>
<g id="g6787">
<path id="path6789" d="M125.941 62.3182V46.2532C124.262 45.6007 122.442 45.2404 120.535 45.2404H117.731V62.3182C117.731 64.1322 119.202 65.6025 121.016 65.6025H129.225C127.411 65.6025 125.941 64.1322 125.941 62.3182Z" fill="#C3EBF8"/>
</g>
<g id="g6791">
<path id="path6793" d="M31.6933 87.4291H29.6333L23.4355 90.6063L18.6958 98.6791V107.585L21.2252 113.263L26.7686 117.794L31.6933 118.806C38.4808 116.817 43.4536 110.539 43.4536 103.118C43.4536 95.696 38.4808 89.4175 31.6933 87.4291Z" fill="#454F5B"/>
</g>
<g id="g6795">
<path id="path6797" d="M19.9333 103.118C19.9333 95.6961 24.9061 89.4177 31.6936 87.4293C30.237 87.0027 28.6983 86.7696 27.1054 86.7696C18.0911 86.7696 10.7573 94.1033 10.7573 103.118C10.7573 112.132 18.0911 119.466 27.1054 119.466C28.6983 119.466 30.237 119.233 31.6936 118.806C24.9061 116.817 19.9333 110.539 19.9333 103.118Z" fill="#454F5B"/>
</g>
<g id="g6799">
<path id="path6801" d="M31.6937 97.2107H30.0112L27.8237 100.984V104.461L29.1909 108.094L31.6937 109.025C33.4547 107.654 34.5906 105.517 34.5906 103.118C34.5906 100.719 33.4547 98.5813 31.6937 97.2107Z" fill="#F4F6F8"/>
</g>
<g id="g6803">
<path id="path6805" d="M28.797 103.118C28.797 100.719 29.933 98.5813 31.6939 97.2107C30.4255 96.2235 28.8336 95.6332 27.1058 95.6332C22.9786 95.6332 19.6211 98.9907 19.6211 103.118C19.6211 107.245 22.9786 110.603 27.1058 110.603C28.8336 110.603 30.4255 110.012 31.6939 109.025C29.933 107.654 28.797 105.517 28.797 103.118Z" fill="#F4F6F8"/>
</g>
<g id="g6807">
<path id="path6809" d="M63.9789 87.4291H61.9189L55.7208 90.6063L50.9814 98.6791V107.585L53.5108 113.263L59.0543 117.794L63.9789 118.806C70.7664 116.817 75.7393 110.539 75.7393 103.118C75.7393 95.696 70.7664 89.4175 63.9789 87.4291Z" fill="#454F5B"/>
</g>
<g id="g6811">
<path id="path6813" d="M52.2189 103.118C52.2189 95.6961 57.1917 89.4177 63.9792 87.4293C62.5223 87.0027 60.9839 86.7696 59.3911 86.7696C50.3764 86.7696 43.043 94.1033 43.043 103.118C43.043 112.132 50.3764 119.466 59.3911 119.466C60.9839 119.466 62.5223 119.233 63.9792 118.806C57.1917 116.817 52.2189 110.539 52.2189 103.118Z" fill="#454F5B"/>
</g>
<g id="g6815">
<path id="path6817" d="M63.9789 97.2107H62.2964L60.1089 100.984V104.461L61.4761 108.094L63.9789 109.025C65.7398 107.654 66.8758 105.517 66.8758 103.118C66.8758 100.719 65.7398 98.5813 63.9789 97.2107Z" fill="#F4F6F8"/>
</g>
<g id="g6819">
<path id="path6821" d="M61.0822 103.118C61.0822 100.719 62.2181 98.5813 63.9791 97.2107C62.7106 96.2235 61.1187 95.6332 59.3909 95.6332C55.2638 95.6332 51.9062 98.9907 51.9062 103.118C51.9062 107.245 55.2638 110.603 59.3909 110.603C61.1187 110.603 62.7106 110.012 63.9791 109.025C62.2181 107.654 61.0822 105.517 61.0822 103.118Z" fill="#F4F6F8"/>
</g>
<g id="g6823">
<path id="path6825" d="M131.302 87.4291H129.242L123.044 90.6063L118.304 98.6791V107.585L120.834 113.263L126.377 117.794L131.302 118.806C138.09 116.817 143.062 110.539 143.062 103.118C143.062 95.696 138.09 89.4175 131.302 87.4291Z" fill="#454F5B"/>
</g>
<g id="g6827">
<path id="path6829" d="M119.542 103.118C119.542 95.6961 124.514 89.4177 131.302 87.4293C129.845 87.0027 128.307 86.7696 126.714 86.7696C117.699 86.7696 110.366 94.1033 110.366 103.118C110.366 112.132 117.699 119.466 126.714 119.466C128.307 119.466 129.845 119.233 131.302 118.806C124.514 116.817 119.542 110.539 119.542 103.118Z" fill="#454F5B"/>
</g>
<g id="g6831">
<path id="path6833" d="M131.302 97.2107H129.62L127.432 100.984V104.461L128.799 108.094L131.302 109.025C133.063 107.654 134.199 105.517 134.199 103.118C134.199 100.719 133.063 98.5813 131.302 97.2107Z" fill="#F4F6F8"/>
</g>
<g id="g6835">
<path id="path6837" d="M128.405 103.118C128.405 100.719 129.541 98.5813 131.302 97.2107C130.034 96.2235 128.442 95.6332 126.714 95.6332C122.587 95.6332 119.229 98.9907 119.229 103.118C119.229 107.245 122.587 110.603 126.714 110.603C128.442 110.603 130.034 110.012 131.302 109.025C129.541 107.654 128.405 105.517 128.405 103.118Z" fill="#F4F6F8"/>
</g>
<g id="g6839">
<path id="path6841" d="M145.779 61.7522H144.656C144.212 61.9166 143.875 62.0447 143.875 62.0447L142.26 63.5291L141.792 64.5187V70.8991L142.521 72.3147L144.886 73.2422H145.779C147.829 73.2422 149.506 71.5653 149.506 69.5156V65.4787C149.506 63.4291 147.829 61.7522 145.779 61.7522Z" fill="#F4F6F8"/>
</g>
<g id="g6843">
<path id="path6845" d="M142.26 69.515V65.4781C142.26 63.4634 143.881 61.8128 145.883 61.7568C145.848 61.7559 145.814 61.7515 145.779 61.7515H138.741C136.691 61.7515 135.014 63.4284 135.014 65.4781V69.515C135.014 71.5646 136.691 73.2412 138.741 73.2412H145.779C145.814 73.2412 145.848 73.2371 145.883 73.2362C143.881 73.1803 142.26 71.5296 142.26 69.515Z" fill="#F4F6F8"/>
</g>
<g id="g6847">
<path id="path6849" d="M66.4203 44.7634C64.2387 42.0871 60.969 40.5337 57.5162 40.5337H43.6862L43.0425 42.0087V55.804L45.4556 57.5303H70.615L71.0947 56.7156V53.864L72.0378 52.165V51.574L66.4203 44.7634Z" fill="#C3EBF8"/>
</g>
<g id="g6851">
<path id="path6853" d="M43.6863 54.4053V40.5337H35.9316V54.4053C35.9316 56.1312 37.3307 57.5303 39.0566 57.5303H46.8113C45.0857 57.5303 43.6863 56.1312 43.6863 54.4053Z" fill="#C3EBF8"/>
</g>
<g id="g6855">
<path id="path6857" d="M79.4294 51.0982H78.3532L77.54 51.4229L76.5466 52.4579L76.0947 53.5907V58.5713L76.8369 59.7432L77.54 60.2313L78.4885 60.5098H79.4294C81.1082 60.5098 82.4819 59.1363 82.4819 57.4576V54.1507C82.4819 52.472 81.1082 51.0982 79.4294 51.0982Z" fill="#F4F6F8"/>
</g>
<g id="g6859">
<path id="path6861" d="M76.347 57.4573V54.1504C76.347 52.4716 77.7207 51.0979 79.3995 51.0979H73.6638C71.9851 51.0979 70.6113 52.4716 70.6113 54.1504V57.4573C70.6113 59.1363 71.9851 60.5098 73.6638 60.5098H79.3995C77.7207 60.5098 76.347 59.1363 76.347 57.4573Z" fill="#F4F6F8"/>
</g>
<g id="g6863">
<path id="path6865" d="M126.813 86.9749C135.771 86.9749 143.059 94.2627 143.059 103.221C143.059 112.178 135.771 119.466 126.813 119.466C117.855 119.466 110.568 112.178 110.568 103.221C110.568 94.2627 117.855 86.9749 126.813 86.9749Z" stroke="#191C1F" stroke-width="4" stroke-miterlimit="10" stroke-linecap="round" stroke-linejoin="round"/>
</g>
<g id="g6867">
<path id="path6869" d="M119.376 103.22C119.376 107.322 122.712 110.658 126.813 110.658C130.915 110.658 134.251 107.322 134.251 103.22C134.251 99.1191 130.915 95.7829 126.813 95.7829C122.712 95.7829 119.376 99.1191 119.376 103.22Z" stroke="#191C1F" stroke-width="4" stroke-miterlimit="10" stroke-linecap="round" stroke-linejoin="round"/>
</g>
<g id="g6871">
<path id="path6873" d="M19.5615 103.22C19.5615 107.322 22.8981 110.658 26.9993 110.658C31.1003 110.658 34.4371 107.322 34.4371 103.22C34.4371 99.1191 31.1003 95.7829 26.9993 95.7829C22.8981 95.7829 19.5615 99.1191 19.5615 103.22Z" stroke="#191C1F" stroke-width="4" stroke-miterlimit="10" stroke-linecap="round" stroke-linejoin="round"/>
</g>
<g id="g6875">
<path id="path6877" d="M52.0527 103.22C52.0527 107.322 55.3893 110.658 59.4902 110.658C63.5915 110.658 66.9284 107.322 66.9284 103.22C66.9284 99.1191 63.5915 95.7829 59.4902 95.7829C55.3893 95.7829 52.0527 99.1191 52.0527 103.22Z" stroke="#191C1F" stroke-width="4" stroke-miterlimit="10" stroke-linecap="round" stroke-linejoin="round"/>
</g>
<g id="g6879">
<path id="path6881" d="M25.9478 79.5799C25.9478 83.6574 29.2649 86.9746 33.3421 86.9746C37.4196 86.9746 40.7368 83.6574 40.7368 79.5799C40.7368 75.5027 37.4196 72.1855 33.3421 72.1855C29.2649 72.1855 25.9478 75.5027 25.9478 79.5799Z" stroke="#191C1F" stroke-width="4" stroke-miterlimit="10" stroke-linecap="round" stroke-linejoin="round"/>
</g>
<g id="g6883">
<path id="path6885" d="M67.4897 79.5799C67.4897 83.6574 70.8066 86.9746 74.8841 86.9746C78.9613 86.9746 82.2788 83.6574 82.2788 79.5799C82.2788 75.5027 78.9613 72.1855 74.8841 72.1855C70.8066 72.1855 67.4897 75.5027 67.4897 79.5799Z" stroke="#191C1F" stroke-width="4" stroke-miterlimit="10" stroke-linecap="round" stroke-linejoin="round"/>
</g>
<g id="g6887">
<path id="path6889" d="M143.059 103.22C143.059 101.386 142.749 99.6238 142.186 97.9779H157.656V104.358C157.656 106.624 155.819 108.462 153.552 108.462H142.186C142.749 106.816 143.059 105.054 143.059 103.22Z" stroke="#191C1F" stroke-width="4" stroke-miterlimit="10" stroke-linecap="round" stroke-linejoin="round"/>
</g>
<g id="g6895">
<path id="path6897" d="M138.737 61.9573H145.776C147.825 61.9573 149.502 63.6341 149.502 65.6838V69.7207C149.502 71.7704 147.825 73.4473 145.776 73.4473H138.737C136.688 73.4473 135.011 71.7704 135.011 69.7207V65.6838C135.011 63.6341 136.688 61.9573 138.737 61.9573Z" stroke="#191C1F" stroke-width="4" stroke-miterlimit="10" stroke-linecap="round" stroke-linejoin="round"/>
</g>
<g id="g6899">
<path id="path6901" d="M73.6604 51.0982H79.426C81.1048 51.0982 82.4785 52.472 82.4785 54.1507V57.4576C82.4785 59.1363 81.1048 60.5098 79.426 60.5098H73.6604C71.9817 60.5098 70.6079 59.1363 70.6079 57.4576V54.1507C70.6079 52.472 71.9817 51.0982 73.6604 51.0982Z" stroke="#191C1F" stroke-width="4" stroke-miterlimit="10" stroke-linecap="round" stroke-linejoin="round"/>
</g>
<g id="g6903">
<path id="path6905" d="M117.759 76.7158H120.933" stroke="#191C1F" stroke-width="4" stroke-miterlimit="10" stroke-linecap="round" stroke-linejoin="round"/>
</g>
<g id="g6907">
<path id="path6909" d="M135.011 65.6836C135.011 64.0042 136.137 62.577 137.671 62.1154L134.547 54.842C132.19 49.352 126.826 45.4457 120.531 45.4457H117.728V62.5236C117.728 64.3373 119.198 65.8076 121.012 65.8076H135.011V65.6836Z" stroke="#191C1F" stroke-width="4" stroke-miterlimit="10" stroke-linecap="round" stroke-linejoin="round"/>
</g>
<g id="g6911">
<path id="path6913" d="M6.09326 108.463H11.6267C11.0639 106.817 10.7539 105.055 10.7539 103.221C10.7539 101.387 11.0639 99.6245 11.6267 97.9785H2.34326V104.713C2.34326 106.775 4.03076 108.463 6.09326 108.463Z" stroke="#191C1F" stroke-width="4" stroke-miterlimit="10" stroke-linecap="round" stroke-linejoin="round"/>
</g>
<g id="g6915">
<path id="path6917" d="M26.9992 86.9749C35.957 86.9749 43.2448 94.2627 43.2448 103.221C43.2448 112.178 35.957 119.466 26.9992 119.466C18.0414 119.466 10.7539 112.178 10.7539 103.221C10.7539 94.2627 18.0414 86.9749 26.9992 86.9749Z" stroke="#191C1F" stroke-width="4" stroke-miterlimit="10" stroke-linecap="round" stroke-linejoin="round"/>
</g>
<g id="g6919">
<path id="path6921" d="M59.4901 86.9749C68.4482 86.9749 75.7357 94.2627 75.7357 103.221C75.7357 112.178 68.4482 119.466 59.4901 119.466C50.5326 119.466 43.2451 112.178 43.2451 103.221C43.2451 94.2627 50.5326 86.9749 59.4901 86.9749Z" stroke="#191C1F" stroke-width="4" stroke-miterlimit="10" stroke-linecap="round" stroke-linejoin="round"/>
</g>
<g id="g6923">
<path id="path6925" d="M59.4902 86.9744C66.614 86.9744 72.6768 91.585 74.863 97.9775H107.829V86.9744H59.4902Z" stroke="#191C1F" stroke-width="4" stroke-miterlimit="10" stroke-linecap="round" stroke-linejoin="round"/>
</g>
<g id="g6927">
<path id="path6929" d="M42.372 97.9775H44.1179C46.3039 91.585 52.3667 86.9744 59.4901 86.9744H26.9995C34.1233 86.9744 40.1861 91.585 42.372 97.9775Z" stroke="#191C1F" stroke-width="4" stroke-miterlimit="10" stroke-linecap="round" stroke-linejoin="round"/>
</g>
<g id="g6931">
<path id="path6933" d="M5.88295 86.9744C3.92795 86.9744 2.34326 88.5591 2.34326 90.5144V97.9775H11.6267C13.8129 91.585 19.8758 86.9744 26.9992 86.9744H5.88295Z" stroke="#191C1F" stroke-width="4" stroke-miterlimit="10" stroke-linecap="round" stroke-linejoin="round"/>
</g>
<g id="g6935">
<path id="path6937" d="M86.8256 59.2898L82.3743 58.2326C82.0284 59.5386 80.8368 60.5101 79.4259 60.5101H73.6603C71.9815 60.5101 70.6081 59.1364 70.6081 57.4576V54.1507C70.6081 53.0692 71.1796 52.117 72.034 51.5745L66.4168 44.7639C64.2353 42.0873 60.9656 40.5342 57.5128 40.5342H34.4612C30.9925 40.5342 27.8278 42.5082 26.3018 45.6229C24.4759 49.3495 22.4287 53.2898 21.0746 55.8611C20.0803 57.7489 19.5615 59.8489 19.5615 61.9823V73.2479C19.5615 75.257 21.1903 76.8857 23.1993 76.8857H26.4584C27.5378 74.1376 30.2156 72.1864 33.3421 72.1864C36.4684 72.1864 39.1465 74.1376 40.2262 76.8857H68.0003C69.08 74.1376 71.7575 72.1864 74.884 72.1864C78.0106 72.1864 80.6881 74.1376 81.7678 76.8857H89.2934C91.3028 76.8857 92.9315 75.257 92.9315 73.2479V66.9007C92.9315 65.5217 92.5768 64.2201 91.9509 63.0864C90.8806 61.1467 88.9809 59.8017 86.8256 59.2898Z" stroke="#191C1F" stroke-width="4" stroke-miterlimit="10" stroke-linecap="round" stroke-linejoin="round"/>
</g>
<g id="g6939">
<path id="path6941" d="M72.0342 51.5737L66.417 44.7631C64.2354 42.0868 60.9657 40.5334 57.5129 40.5334H35.9282V54.4053C35.9282 56.1309 37.3273 57.5303 39.0532 57.5303H70.6117C70.611 57.5056 70.6082 57.4818 70.6082 57.4571V54.1503C70.6082 53.0687 71.1798 52.1162 72.0342 51.5737Z" stroke="#191C1F" stroke-width="4" stroke-miterlimit="10" stroke-linecap="round" stroke-linejoin="round"/>
</g>
<g id="g6943">
<path id="path6945" d="M53.3501 41.957V75.4727" stroke="#191C1F" stroke-width="4" stroke-miterlimit="10" stroke-linecap="round" stroke-linejoin="round"/>
</g>
<g id="g6947">
<path id="path6949" d="M21.0063 63.2852H24.1313" stroke="#191C1F" stroke-width="4" stroke-miterlimit="10" stroke-linecap="round" stroke-linejoin="round"/>
</g>
<g id="g6951">
<path id="path6953" d="M91.6313 67.582H87.4517" stroke="#191C1F" stroke-width="4" stroke-miterlimit="10" stroke-linecap="round" stroke-linejoin="round"/>
</g>
<g id="g6955">
<path id="path6957" d="M98.4005 108.463H111.441C110.878 106.817 110.568 105.055 110.568 103.221C110.568 101.386 110.878 99.6245 111.441 97.9785H74.8633C75.4261 99.6245 75.7361 101.387 75.7361 103.221C75.7361 105.055 75.4261 106.817 74.8633 108.463H104.921" stroke="#191C1F" stroke-width="4" stroke-miterlimit="10" stroke-linecap="round" stroke-linejoin="round"/>
</g>
<g id="g6959">
<path id="path6961" d="M107.829 71.2766V97.9775H111.441C113.627 91.5854 119.69 86.9744 126.813 86.9744C133.937 86.9744 140 91.5854 142.186 97.9775H157.656V84.6257C157.656 84.6082 157.656 84.591 157.656 84.5741C157.653 84.1332 157.615 83.6957 157.546 83.2654C157.141 80.7675 155.521 78.6325 153.301 77.4175L146.018 73.4329C145.937 73.4385 145.858 73.4469 145.776 73.4469H138.737C136.688 73.4469 135.011 71.77 135.011 69.7207V65.6838C135.011 64.0044 136.137 62.5769 137.671 62.1157L134.547 54.8419C132.19 49.3519 126.825 45.4457 120.532 45.4457H112.789C110.049 45.4457 107.829 47.6663 107.829 50.4057V77.4175" stroke="#191C1F" stroke-width="4" stroke-miterlimit="10" stroke-linecap="round" stroke-linejoin="round"/>
</g>
</g>
</g>
</g>
</g>
</g>
</svg>
