<svg width="20" height="20" viewBox="0 0 20 20" fill="none" xmlns="http://www.w3.org/2000/svg">
<g id="Apple - Negative" clip-path="url(#clip0_1097_621)">
<path id="path4" d="M18.1598 15.5861C17.8573 16.2848 17.4993 16.928 17.0845 17.5194C16.5191 18.3255 16.0562 18.8835 15.6994 19.1934C15.1463 19.702 14.5537 19.9625 13.9192 19.9773C13.4637 19.9773 12.9143 19.8477 12.2748 19.5847C11.6332 19.323 11.0436 19.1934 10.5045 19.1934C9.93908 19.1934 9.33268 19.323 8.68406 19.5847C8.03445 19.8477 7.51113 19.9847 7.11102 19.9983C6.50252 20.0242 5.896 19.7563 5.29058 19.1934C4.90418 18.8563 4.42086 18.2786 3.84187 17.4601C3.22065 16.586 2.70993 15.5725 2.30982 14.417C1.88131 13.1689 1.6665 11.9603 1.6665 10.7902C1.6665 9.44984 1.95612 8.29383 2.53623 7.32509C2.99214 6.54697 3.59866 5.93316 4.35778 5.48255C5.11689 5.03195 5.93711 4.80233 6.82041 4.78764C7.30373 4.78764 7.93754 4.93714 8.72517 5.23096C9.51057 5.52576 10.0149 5.67526 10.236 5.67526C10.4013 5.67526 10.9615 5.50045 11.9112 5.15195C12.8094 4.82875 13.5674 4.69492 14.1883 4.74764C15.871 4.88344 17.1351 5.54675 17.9759 6.74177C16.471 7.6536 15.7265 8.93072 15.7414 10.5691C15.7549 11.8452 16.2179 12.9071 17.1277 13.7503C17.5401 14.1417 18.0005 14.4441 18.5129 14.6589C18.4018 14.9812 18.2845 15.2898 18.1598 15.5861ZM14.3007 0.400114C14.3007 1.40034 13.9352 2.33425 13.2069 3.19867C12.3279 4.22629 11.2647 4.8201 10.1118 4.7264C10.0971 4.60641 10.0886 4.48011 10.0886 4.3474C10.0886 3.38718 10.5066 2.35956 11.2489 1.51934C11.6195 1.09392 12.0909 0.74019 12.6624 0.458013C13.2328 0.180046 13.7723 0.0263242 14.2797 0C14.2945 0.133715 14.3007 0.267438 14.3007 0.400101V0.400114Z" fill="#191C1F"/>
</g>
<defs>
<clipPath id="clip0_1097_621">
<rect width="20" height="20" fill="white"/>
</clipPath>
</defs>
</svg>
