<svg width="20" height="20" viewBox="0 0 20 20" fill="none" xmlns="http://www.w3.org/2000/svg">
<path id="Subtract" fill-rule="evenodd" clip-rule="evenodd" d="M4.51798 20H14.998C17.758 20 18.858 18.31 18.988 16.25L19.508 7.99C19.648 5.83 17.928 4 15.758 4C15.148 4 14.588 3.65 14.308 3.11L13.588 1.66C13.128 0.75 11.928 0 10.908 0H8.61798C7.58798 0 6.38798 0.75 5.92798 1.66L5.20798 3.11C4.92798 3.65 4.36798 4 3.75798 4C1.58798 4 -0.13202 5.83 0.00798004 7.99L0.52798 16.25C0.64798 18.31 1.75798 20 4.51798 20ZM11.2581 6.75H8.25806C7.84806 6.75 7.50806 6.41 7.50806 6C7.50806 5.59 7.84806 5.25 8.25806 5.25H11.2581C11.6681 5.25 12.0081 5.59 12.0081 6C12.0081 6.41 11.6681 6.75 11.2581 6.75ZM13.1379 12.75C13.1379 14.6167 11.6247 16.13 9.75793 16.13C7.89121 16.13 6.37793 14.6167 6.37793 12.75C6.37793 10.8833 7.89121 9.37 9.75793 9.37C11.6247 9.37 13.1379 10.8833 13.1379 12.75Z" fill="#191C1F"/>
</svg>
