<svg width="20" height="20" viewBox="0 0 20 20" fill="none" xmlns="http://www.w3.org/2000/svg">
<path id="Subtract" fill-rule="evenodd" clip-rule="evenodd" d="M16.3875 4.97601L16.425 5.15456H16.4204L16.6737 6.36015L16.7202 6.58187C16.4575 6.553 16.1806 6.53864 15.8892 6.53864H4.11077C3.81945 6.53864 3.54252 6.553 3.27975 6.58187L3.32633 6.36015L3.5796 5.15456H3.575L3.61249 4.97601L3.96326 3.30589L3.96327 3.30589L3.96409 3.30192C4.12014 2.54361 4.32912 2.00432 4.68166 1.64245C5.00119 1.31447 5.57182 1 6.76 1H9.30769H10.6923H13.24C14.4282 1 14.9988 1.31447 15.3183 1.64245C15.6709 2.00432 15.8799 2.54361 16.0359 3.30192L16.0367 3.30589L16.3875 4.97601ZM17.9144 7.40207L17.8624 7.15456L17.7887 6.80394L17.6523 6.15456H18.3077C18.4334 6.15456 18.5519 6.11996 18.6542 6.05988C18.86 5.93905 19 5.71519 19 5.46251C19 5.0842 18.6862 4.77047 18.3077 4.77047H17.3846H17.3662L17.0154 3.10035C16.6831 1.48558 15.9908 0 13.24 0H10.6923H9.30769H6.76C4.00923 0 3.31692 1.48558 2.98462 3.10035L2.63385 4.77047H2.61538H1.69231C1.31385 4.77047 1 5.0842 1 5.46251C1 5.71519 1.14 5.93906 1.34575 6.05988C1.44806 6.11996 1.56662 6.15456 1.69231 6.15456H2.34769L2.21127 6.80394L2.13761 7.15456L2.08541 7.40302C0.872288 8.03677 0.637888 9.32076 0.531598 10.5464L0.0107432 16.88C-0.0543636 17.6704 0.178161 18.4608 0.661812 19.0536C1.15476 19.6568 1.85234 20 2.59642 20H4.345C5.85176 20 6.14009 19.0328 6.32611 18.3984L6.51213 17.7744C6.72605 17.0568 6.78186 16.88 7.61895 16.88H12.3811C13.2142 16.88 13.2458 16.983 13.4845 17.7634L13.4879 17.7744L13.6739 18.3984C13.8599 19.0328 14.1482 20 15.655 20H17.4036C18.1384 20 18.8452 19.6568 19.3382 19.0536C19.8218 18.4608 20.0544 17.6704 19.9893 16.88L19.4684 10.5464C19.3687 9.32015 19.1313 8.03548 17.9144 7.40207ZM6.75146 13.67H3.75146C3.34146 13.67 3.00146 13.33 3.00146 12.92C3.00146 12.51 3.34146 12.17 3.75146 12.17H6.75146C7.16146 12.17 7.50146 12.51 7.50146 12.92C7.50146 13.33 7.16146 13.67 6.75146 13.67ZM12.7515 13.67H15.7515C16.1615 13.67 16.5015 13.33 16.5015 12.92C16.5015 12.51 16.1615 12.17 15.7515 12.17H12.7515C12.3415 12.17 12.0015 12.51 12.0015 12.92C12.0015 13.33 12.3415 13.67 12.7515 13.67Z" fill="#191C1F"/>
</svg>
