<svg width="40" height="40" viewBox="0 0 40 40" fill="none" xmlns="http://www.w3.org/2000/svg">
<g id="vuesax/linear/gallery">
<g id="gallery">
<path id="Vector" d="M15.0002 36.6668H25.0002C33.3335 36.6668 36.6668 33.3335 36.6668 25.0002V15.0002C36.6668 6.66683 33.3335 3.3335 25.0002 3.3335H15.0002C6.66683 3.3335 3.3335 6.66683 3.3335 15.0002V25.0002C3.3335 33.3335 6.66683 36.6668 15.0002 36.6668Z" stroke="#191C1F" stroke-width="1.5" stroke-linecap="round" stroke-linejoin="round"/>
<path id="Vector_2" d="M14.9998 16.6667C16.8408 16.6667 18.3332 15.1743 18.3332 13.3333C18.3332 11.4924 16.8408 10 14.9998 10C13.1589 10 11.6665 11.4924 11.6665 13.3333C11.6665 15.1743 13.1589 16.6667 14.9998 16.6667Z" stroke="#191C1F" stroke-width="1.5" stroke-linecap="round" stroke-linejoin="round"/>
<path id="Vector_3" d="M4.4502 31.5831L12.6669 26.0664C13.9835 25.1831 15.8835 25.2831 17.0669 26.2998L17.6169 26.7831C18.9169 27.8998 21.0169 27.8998 22.3169 26.7831L29.2502 20.8331C30.5502 19.7164 32.6502 19.7164 33.9502 20.8331L36.6669 23.1664" stroke="#191C1F" stroke-width="1.5" stroke-linecap="round" stroke-linejoin="round"/>
</g>
</g>
</svg>
