<svg width="172" height="112" viewBox="0 0 172 112" fill="none" xmlns="http://www.w3.org/2000/svg">
<g id="Group 1000005899">
<g id="Group 1000005896">
<g id="Ellipse 24" style="mix-blend-mode:multiply">
<path d="M147.195 82.0514C147.195 76.9137 146.181 71.8263 144.212 67.0796C142.242 62.333 139.355 58.0201 135.715 54.3871C132.076 50.7542 127.755 47.8724 122.999 45.9063C118.244 43.9402 113.147 42.9282 108 42.9282C102.853 42.9282 97.756 43.9402 93.0006 45.9063C88.2452 47.8724 83.9243 50.7542 80.2847 54.3872C76.6451 58.0201 73.758 62.333 71.7883 67.0796C69.8185 71.8263 68.8047 76.9137 68.8047 82.0514L108 82.0514H147.195Z" fill="#EFF1F3"/>
</g>
<g id="Ellipse 22" style="mix-blend-mode:multiply">
<path d="M172 110C172 105.543 171.121 101.13 169.412 97.0127C167.703 92.8952 165.199 89.1539 162.042 86.0026C158.884 82.8512 155.136 80.3514 151.011 78.6458C146.886 76.9403 142.465 76.0625 138 76.0625C133.535 76.0625 129.114 76.9403 124.989 78.6458C120.864 80.3514 117.116 82.8512 113.958 86.0026C110.801 89.1539 108.297 92.8952 106.588 97.0127C104.879 101.13 104 105.543 104 110L138 110H172Z" fill="#EFF1F3"/>
</g>
<g id="Group 1000005898">
<g id="g10402">
<path id="path10404" d="M136.84 100.69L136.84 100.689L137.006 52.6543L137.013 50.6612H139.006H142.989H144.989V52.6612V100.703C144.989 101.323 144.838 101.98 144.487 102.546C144.155 103.082 143.435 103.82 142.297 103.82H139.532C138.39 103.82 137.67 103.076 137.339 102.539C136.989 101.971 136.838 101.312 136.84 100.69Z" fill="#7E8A94" stroke="#191C1F" stroke-width="4"/>
</g>
<g id="g10410">
<path id="path10412" d="M168 29.178C168 44.1746 155.925 56.356 141 56.356C126.075 56.356 114 44.1746 114 29.178C114 14.1814 126.075 2.00011 141 2.00011C155.925 2.00011 168 14.1814 168 29.178Z" fill="#D82F3D" stroke="black" stroke-width="4"/>
</g>
<g id="Group 1000005897">
<g id="g10418">
<path id="path10420" d="M141.001 12.5363C138.098 12.5363 135.372 13.2901 133.003 14.6154L155.454 37.2268C156.764 34.8427 157.51 32.0999 157.51 29.1777C157.51 19.9734 150.105 12.5363 141.001 12.5363Z" fill="#F5FAFF" stroke="black" stroke-width="4"/>
</g>
<g id="g10422">
<path id="path10424" d="M148.908 43.7668L126.515 21.2286C125.302 23.5605 124.665 26.2607 124.665 29.1778C124.665 38.3821 131.895 45.6431 141 45.6431C143.902 45.6431 146.589 44.9974 148.908 43.7668Z" fill="#F5FAFF" stroke="black" stroke-width="4"/>
</g>
</g>
</g>
<g id="Ellipse 23" style="mix-blend-mode:multiply">
<path d="M68 109.805C68 105.348 67.1206 100.935 65.4119 96.8178C63.7032 92.7004 61.1988 88.9591 58.0416 85.8077C54.8844 82.6563 51.1363 80.1565 47.0112 78.451C42.8862 76.7455 38.4649 75.8677 34 75.8677C29.5351 75.8677 25.1138 76.7455 20.9888 78.451C16.8637 80.1565 13.1156 82.6563 9.95837 85.8077C6.80118 88.9591 4.29675 92.7004 2.58809 96.8178C0.879435 100.935 -3.90338e-07 105.348 0 109.805L34 109.805H68Z" fill="#EFF1F3"/>
</g>
</g>
<g id="g4159">
<g id="g4165">
<path id="path4167" d="M145.488 109.805H24.4687C20.8961 109.805 18 106.918 18 103.357C18 102.466 18.724 101.745 19.6172 101.745H150.34C151.233 101.745 151.957 102.466 151.957 103.357C151.957 106.918 149.061 109.805 145.488 109.805Z" fill="#454F5B" stroke="#191C1F" stroke-width="4"/>
</g>
<g id="g4173">
<path id="path4175" d="M127.688 81.5933H28.562V65.1046C28.562 62.6438 30.1345 60.4559 32.4724 59.6644L33.8122 59.2108H98.0741L122.22 62.3557C125.334 62.7066 127.688 65.3324 127.688 68.4569V81.5933Z" fill="#FFC501"/>
</g>
<path id="path4177" d="M60.6729 59.2099H52.5869V81.5923H60.6729V59.2099Z" fill="#FFC501"/>
<g id="g4179">
<path id="path4181" d="M122.22 62.3557L98.0742 59.2106H89.9883L114.134 62.3557C117.248 62.7064 119.602 65.3324 119.602 68.4569V81.5933H127.688V68.4569C127.688 65.3324 125.334 62.7064 122.22 62.3557Z" fill="#FFC501"/>
</g>
<g id="g4183">
<path id="path4185" d="M128.237 89.6543H28.6348C26.402 89.6543 24.5918 87.8498 24.5918 85.6241C24.5918 83.3983 26.402 81.5939 28.6348 81.5939H128.237C130.47 81.5939 132.28 83.3983 132.28 85.6241C132.28 87.8498 130.47 89.6543 128.237 89.6543Z" fill="#919EAB"/>
</g>
<g id="g4187">
<path id="path4189" d="M128.237 81.5939H120.151C122.384 81.5939 124.194 83.3983 124.194 85.6241C124.194 87.8498 122.384 89.6543 120.151 89.6543H128.237C130.47 89.6543 132.28 87.8498 132.28 85.6241C132.28 83.3983 130.47 81.5939 128.237 81.5939Z" fill="#919EAB"/>
</g>
<g id="g4191">
<path id="path4193" d="M98.0739 59.2095H33.812L38.9902 43.4645H90.181L98.0739 59.2095Z" fill="#F4F6F8"/>
</g>
<g id="g4195">
<path id="path4197" d="M90.1812 43.4645H82.0952L89.9882 59.2095H98.0741L90.1812 43.4645Z" fill="#F4F6F8"/>
</g>
<g id="g4199">
<path id="path4201" d="M58.0698 89.654C58.0698 96.3315 52.6396 101.745 45.9409 101.745C39.2423 101.745 33.812 96.3315 33.812 89.654C33.812 82.9765 39.2423 77.5634 45.9409 77.5634C52.6396 77.5634 58.0698 82.9765 58.0698 89.654Z" fill="#919EAB"/>
</g>
<g id="g4203">
<path id="path4205" d="M90.1915 43.4644H38.8142C38.19 43.4644 37.6841 42.96 37.6841 42.338V41.0771C37.6841 38.2407 39.991 35.9413 42.8364 35.9413H86.1692C89.0147 35.9413 91.3213 38.2407 91.3213 41.0771V42.338C91.3213 42.96 90.8154 43.4644 90.1915 43.4644Z" fill="#FFC501"/>
</g>
<g id="g4207">
<path id="path4209" d="M86.1694 35.9413H80.4736C83.3191 35.9413 83.2355 38.2407 83.2355 41.0771V42.338C83.2355 42.96 82.7296 43.4644 82.1056 43.4644H90.1916C90.8155 43.4644 91.3215 42.96 91.3215 42.338V41.0771C91.3215 38.2407 89.0148 35.9413 86.1694 35.9413Z" fill="#FFC501"/>
</g>
<g id="g4211">
<path id="path4213" d="M50.2534 89.6523C50.2534 92.0263 48.3228 93.9512 45.9409 93.9512C43.5593 93.9512 41.6284 92.0263 41.6284 89.6523C41.6284 87.2782 43.5593 85.3534 45.9409 85.3534C48.3228 85.3534 50.2534 87.2782 50.2534 89.6523Z" fill="#F4F6F8"/>
</g>
<g id="g4215">
<path id="path4217" d="M121.404 89.654C121.404 96.3315 115.974 101.745 109.275 101.745C102.576 101.745 97.1465 96.3315 97.1465 89.654C97.1465 82.9765 102.576 77.5634 109.275 77.5634C115.974 77.5634 121.404 82.9765 121.404 89.654Z" fill="#919EAB"/>
</g>
<g id="g4219">
<path id="path4221" d="M113.588 89.6523C113.588 92.0263 111.657 93.9512 109.275 93.9512C106.894 93.9512 104.963 92.0263 104.963 89.6523C104.963 87.2782 106.894 85.3534 109.275 85.3534C111.657 85.3534 113.588 87.2782 113.588 89.6523Z" fill="#F4F6F8"/>
</g>
<path id="path4223" d="M68.7588 59.21H60.6729V43.465H68.7588V59.21Z" fill="#FFC501"/>
<g id="g4241">
<path id="path4243" d="M118.316 81.5939H128.238C130.47 81.5939 132.281 83.3994 132.281 85.6241C132.281 86.7364 131.828 87.744 131.095 88.4721C130.364 89.2029 129.354 89.6543 128.238 89.6543H121.405" stroke="#191C1F" stroke-width="4" stroke-miterlimit="10" stroke-linecap="round" stroke-linejoin="round"/>
</g>
<g id="g4245">
<path id="path4247" d="M33.8129 89.6543H28.6353C26.4008 89.6543 24.5923 87.8488 24.5923 85.6241C24.5923 84.5118 25.0451 83.5042 25.7755 82.7761C26.506 82.0453 27.5194 81.5939 28.6353 81.5939H36.9018" stroke="#191C1F" stroke-width="4" stroke-miterlimit="10" stroke-linecap="round" stroke-linejoin="round"/>
</g>
<g id="g4249">
<path id="path4251" d="M100.236 81.5933H54.9819" stroke="#191C1F" stroke-width="4" stroke-miterlimit="10" stroke-linecap="round" stroke-linejoin="round"/>
</g>
<g id="g4253">
<path id="path4255" d="M69.6246 89.6543H58.6841" stroke="#191C1F" stroke-width="4" stroke-miterlimit="10" stroke-linecap="round" stroke-linejoin="round"/>
</g>
<g id="g4257">
<path id="path4259" d="M96.5343 89.6543H65.9126" stroke="#191C1F" stroke-width="4" stroke-miterlimit="10" stroke-linecap="round" stroke-linejoin="round"/>
</g>
<g id="g4261">
<path id="path4263" d="M110.046 60.7877L122.219 62.3557C125.335 62.7077 127.688 65.3327 127.688 68.4575V81.5933H118.316" stroke="#191C1F" stroke-width="4" stroke-miterlimit="10" stroke-linecap="round" stroke-linejoin="round"/>
</g>
<g id="g4265">
<path id="path4267" d="M36.9018 81.5933H28.5625V65.1043C28.5625 62.6432 30.1339 60.4562 32.4734 59.6636L33.813 59.2095H98.0746L110.687 60.853" stroke="#191C1F" stroke-width="4" stroke-miterlimit="10" stroke-linecap="round" stroke-linejoin="round"/>
</g>
<g id="g4269">
<path id="path4271" d="M98.0739 59.2095H33.812L38.9902 43.4645H90.181L98.0739 59.2095Z" stroke="#191C1F" stroke-width="4" stroke-miterlimit="10" stroke-linecap="round" stroke-linejoin="round"/>
</g>
<g id="g4273">
<path id="path4275" d="M58.0698 89.654C58.0698 96.3315 52.6396 101.745 45.9409 101.745C39.2423 101.745 33.812 96.3315 33.812 89.654C33.812 82.9765 39.2423 77.5634 45.9409 77.5634C52.6396 77.5634 58.0698 82.9765 58.0698 89.654Z" stroke="#191C1F" stroke-width="4" stroke-miterlimit="10" stroke-linecap="round" stroke-linejoin="round"/>
</g>
<g id="g4277">
<path id="path4279" d="M90.1915 43.4644H38.8142C38.19 43.4644 37.6841 42.96 37.6841 42.338V41.0771C37.6841 38.2407 39.991 35.9413 42.8364 35.9413H86.1692C89.0147 35.9413 91.3213 38.2407 91.3213 41.0771V42.338C91.3213 42.96 90.8154 43.4644 90.1915 43.4644Z" stroke="#191C1F" stroke-width="4" stroke-miterlimit="10" stroke-linecap="round" stroke-linejoin="round"/>
</g>
<g id="g4281">
<path id="path4283" d="M50.2534 89.6523C50.2534 92.0263 48.3228 93.9512 45.9409 93.9512C43.5593 93.9512 41.6284 92.0263 41.6284 89.6523C41.6284 87.2782 43.5593 85.3534 45.9409 85.3534C48.3228 85.3534 50.2534 87.2782 50.2534 89.6523Z" stroke="#191C1F" stroke-width="4" stroke-miterlimit="10" stroke-linecap="round" stroke-linejoin="round"/>
</g>
<g id="g4285">
<path id="path4287" d="M121.404 89.654C121.404 96.3315 115.974 101.745 109.275 101.745C102.576 101.745 97.1465 96.3315 97.1465 89.654C97.1465 82.9765 102.576 77.5634 109.275 77.5634C115.974 77.5634 121.404 82.9765 121.404 89.654Z" stroke="#191C1F" stroke-width="4" stroke-miterlimit="10" stroke-linecap="round" stroke-linejoin="round"/>
</g>
<g id="g4289">
<path id="path4291" d="M113.588 89.6523C113.588 92.0263 111.657 93.9512 109.275 93.9512C106.894 93.9512 104.963 92.0263 104.963 89.6523C104.963 87.2782 106.894 85.3534 109.275 85.3534C111.657 85.3534 113.588 87.2782 113.588 89.6523Z" stroke="#191C1F" stroke-width="4" stroke-miterlimit="10" stroke-linecap="round" stroke-linejoin="round"/>
</g>
<g id="g4293">
<path id="path4295" d="M60.6729 59.2108V81.5933" stroke="#191C1F" stroke-width="4" stroke-miterlimit="10" stroke-linecap="round" stroke-linejoin="round"/>
</g>
<g id="g4297">
<path id="path4299" d="M73.4648 68.6714H77.4456" stroke="#191C1F" stroke-width="4" stroke-miterlimit="10" stroke-linecap="round" stroke-linejoin="round"/>
</g>
<path id="path4301" d="M68.7588 59.21H60.6729V43.465H68.7588V59.21Z" stroke="#191C1F" stroke-width="4" stroke-miterlimit="10" stroke-linecap="round" stroke-linejoin="round"/>
</g>
</g>
</svg>
