<svg width="16" height="20" viewBox="0 0 16 20" fill="none" xmlns="http://www.w3.org/2000/svg">
<path id="Subtract" fill-rule="evenodd" clip-rule="evenodd" d="M8.00451 0C11.1955 0 14.8282 2.02927 15.7747 6.53659C16.8293 11.5707 13.9809 15.8244 11.4028 18.5073C10.4563 19.5024 9.23042 20 8.00451 20C6.77859 20 5.55267 19.5024 4.59717 18.5073C2.01914 15.8244 -0.829317 11.561 0.225333 6.52683C1.17181 2.01951 4.81351 0 7.99549 0H8.00451ZM11.1464 8.07317C11.1464 9.77044 9.77048 11.1463 8.07322 11.1463C6.37595 11.1463 5.00005 9.77044 5.00005 8.07317C5.00005 6.37591 6.37595 5 8.07322 5C9.77048 5 11.1464 6.37591 11.1464 8.07317Z" fill="#191C1F"/>
</svg>
