<svg width="236" height="48" viewBox="0 0 236 48" fill="none" xmlns="http://www.w3.org/2000/svg">
<path d="M47.9675 0H0V48H47.9675V0Z" fill="#FFC501"/>
<path d="M13.9878 8.00195V20.002H33.9758V8.00195L13.9878 8.00195Z" fill="#191C1F"/>
<path d="M23.9843 20.002C18.4632 20.002 13.9927 24.4804 13.9927 30.0004C13.9927 35.5251 18.468 39.9987 23.9843 39.9987C29.5054 39.9987 33.9759 35.5203 33.9759 30.0004H23.9843V20.002Z" fill="#191C1F"/>
<path d="M65.5423 15.9366H57.5605V10.1094H80.3979V15.9366H72.3393V40.2918L65.5471 37.9206V15.9366H65.5423Z" fill="white"/>
<path d="M77.0571 27.9804C77.0571 21.9948 81.2783 17.4492 87.5716 17.4492C93.8649 17.4492 98.0525 21.9948 98.0525 27.9804C98.0525 33.966 93.9081 38.5116 87.5716 38.5116C81.2351 38.5116 77.0571 33.966 77.0571 27.9804ZM91.7208 27.9804C91.7208 24.366 90.2626 21.918 87.538 21.918C84.8135 21.918 83.3936 24.366 83.3936 27.9804C83.3936 31.5948 84.8135 34.0044 87.538 34.0044C90.2626 34.0044 91.7208 31.5948 91.7208 27.9804Z" fill="white"/>
<path d="M97.8213 17.9922H104.191L106.34 26.229C106.762 27.8226 107.223 30.0786 107.223 30.0786H107.3C107.3 30.0786 107.76 27.7842 108.182 26.1138L110.254 17.9922H115.55L117.699 26.1138C118.121 27.8226 118.62 30.117 118.62 30.117H118.697C118.697 30.117 119.196 27.8226 119.618 26.229L121.805 17.9922H127.983L121.959 37.8882H116.087L113.785 28.8738C113.363 27.3186 112.941 25.2978 112.941 25.2978H112.864C112.864 25.2978 112.403 27.3186 111.981 28.8738L109.64 37.8882H103.846L97.8213 17.9922Z" fill="white"/>
<path d="M131.751 32.6446V21.9598H129.141V17.995H131.751V9.27344L137.852 11.7022V17.995H141.421V21.9598H137.852V31.2862C137.852 32.8414 138.696 33.2302 140.039 33.2302C140.577 33.2302 141.191 33.1918 141.421 33.1918V37.8142C140.884 37.9678 139.694 38.1262 138.005 38.1262C134.36 38.1262 131.751 36.9214 131.751 32.6494V32.6446Z" fill="white"/>
<path d="M143.152 32.3292C143.152 27.9372 146.606 26.6172 150.673 26.0748C154.357 25.6092 155.662 25.2204 155.662 23.862C155.662 22.5804 154.856 21.726 152.976 21.726C150.98 21.726 149.982 22.6188 149.791 24.2892H144.034C144.188 20.598 146.989 17.4492 152.937 17.4492C155.892 17.4492 157.887 17.9916 159.307 19.0812C160.996 20.3244 161.802 22.2684 161.802 24.7548V34.782C161.802 36.3756 161.955 37.2684 162.492 37.6188V37.8924H156.429C156.122 37.4652 155.93 36.6876 155.777 35.6796H155.7C154.549 37.35 152.822 38.4012 149.867 38.4012C145.953 38.4012 143.152 36.2652 143.152 32.3388V32.3292ZM155.82 30.774V28.4028C155.014 28.83 153.863 29.142 152.597 29.454C150.179 29.9964 149.181 30.6204 149.181 32.1372C149.181 33.7308 150.333 34.35 151.868 34.35C154.208 34.35 155.82 32.91 155.82 30.774Z" fill="white"/>
<path d="M163.954 27.9804C163.954 21.9948 168.022 17.4492 174.243 17.4492C179.577 17.4492 182.992 20.598 183.568 25.0668H177.543C177.16 23.2812 176.085 22.1148 174.32 22.1148C171.634 22.1148 170.291 24.366 170.291 27.9804C170.291 31.5948 171.634 33.7692 174.32 33.7692C176.277 33.7692 177.467 32.6028 177.735 30.3516H183.722C183.568 34.9356 179.961 38.5116 174.397 38.5116C168.065 38.5116 163.954 33.966 163.954 27.9804Z" fill="white"/>
<path d="M185.72 7.67969L191.898 10.1085V24.7197L197.731 17.9997H204.945L198.038 25.4589L205.751 37.8909H198.498L193.778 29.7693L191.898 31.7901V37.8909H185.72V7.67969Z" fill="white"/>
<path d="M207.245 7.67969L213.577 10.1085V37.8909H207.245V7.67969Z" fill="white"/>
<path d="M215.728 27.9069C215.728 21.9597 219.834 17.4141 225.821 17.4141C228.622 17.4141 230.848 18.3453 232.536 19.9005C234.877 22.0749 236.028 25.5357 235.99 29.5773H221.863C222.247 32.2605 223.705 33.9309 226.276 33.9309C227.927 33.9309 229.001 33.1917 229.538 31.9485H235.64C235.218 33.7341 234.066 35.4477 232.34 36.6477C230.689 37.8141 228.694 38.4765 226.2 38.4765C219.715 38.4765 215.724 33.9309 215.724 27.9069H215.728ZM229.663 25.8093C229.433 23.4381 227.975 21.9213 225.941 21.9213C223.562 21.9213 222.334 23.4381 221.911 25.8093H229.663Z" fill="white"/>
</svg>
